<mxfile host="app.diagrams.net" modified="2020-12-01T09:43:45.619Z" agent="5.0 (Windows NT 10.0; WOW64) AppleWebKit/537.36 (KHTML, like Gecko) Chrome/86.0.4240.198 Safari/537.36" etag="Hpv4Di2jHEY91t7fqzJc" version="13.10.4" type="github">
  <diagram id="IjNw_EtA-p46SSkv6k7q" name="Page-1">
    <mxGraphModel dx="1038" dy="579" grid="1" gridSize="10" guides="1" tooltips="1" connect="1" arrows="1" fold="1" page="1" pageScale="1" pageWidth="850" pageHeight="1100" math="0" shadow="0">
      <root>
        <mxCell id="0" />
        <mxCell id="1" parent="0" />
        <mxCell id="LcHalGJhOg3NI_4NTW-C-50" style="edgeStyle=orthogonalEdgeStyle;rounded=0;orthogonalLoop=1;jettySize=auto;html=1;exitX=1;exitY=0.5;exitDx=0;exitDy=0;entryX=0;entryY=0.5;entryDx=0;entryDy=0;shadow=1;" edge="1" parent="1" source="LcHalGJhOg3NI_4NTW-C-26" target="LcHalGJhOg3NI_4NTW-C-16">
          <mxGeometry relative="1" as="geometry" />
        </mxCell>
        <mxCell id="LcHalGJhOg3NI_4NTW-C-26" value="" style="rounded=1;whiteSpace=wrap;html=1;absoluteArcSize=1;arcSize=14;strokeWidth=2;shadow=1;fillColor=#dae8fc;strokeColor=#6c8ebf;glass=0;sketch=0;" vertex="1" parent="1">
          <mxGeometry x="320" y="370" width="490" height="200" as="geometry" />
        </mxCell>
        <mxCell id="LcHalGJhOg3NI_4NTW-C-33" style="edgeStyle=orthogonalEdgeStyle;rounded=0;orthogonalLoop=1;jettySize=auto;html=1;exitX=1;exitY=0.5;exitDx=0;exitDy=0;entryX=0;entryY=0.5;entryDx=0;entryDy=0;shadow=1;" edge="1" parent="1" source="LcHalGJhOg3NI_4NTW-C-7" target="LcHalGJhOg3NI_4NTW-C-10">
          <mxGeometry relative="1" as="geometry" />
        </mxCell>
        <mxCell id="LcHalGJhOg3NI_4NTW-C-7" value="Data Acquisition" style="rounded=1;whiteSpace=wrap;html=1;absoluteArcSize=1;arcSize=14;strokeWidth=2;shadow=1;" vertex="1" parent="1">
          <mxGeometry x="78" y="420" width="99" height="100" as="geometry" />
        </mxCell>
        <mxCell id="LcHalGJhOg3NI_4NTW-C-32" style="edgeStyle=orthogonalEdgeStyle;rounded=0;orthogonalLoop=1;jettySize=auto;html=1;exitX=1;exitY=0.5;exitDx=0;exitDy=0;entryX=0;entryY=0.5;entryDx=0;entryDy=0;shadow=1;" edge="1" parent="1" source="LcHalGJhOg3NI_4NTW-C-10" target="LcHalGJhOg3NI_4NTW-C-26">
          <mxGeometry relative="1" as="geometry" />
        </mxCell>
        <mxCell id="LcHalGJhOg3NI_4NTW-C-10" value="Data Preprocessing" style="rounded=1;whiteSpace=wrap;html=1;absoluteArcSize=1;arcSize=14;strokeWidth=2;shadow=1;" vertex="1" parent="1">
          <mxGeometry x="198" y="420" width="100" height="100" as="geometry" />
        </mxCell>
        <mxCell id="LcHalGJhOg3NI_4NTW-C-49" style="edgeStyle=orthogonalEdgeStyle;rounded=0;orthogonalLoop=1;jettySize=auto;html=1;exitX=0.5;exitY=1;exitDx=0;exitDy=0;entryX=0.5;entryY=1;entryDx=0;entryDy=0;shadow=1;" edge="1" parent="1" source="LcHalGJhOg3NI_4NTW-C-15" target="LcHalGJhOg3NI_4NTW-C-11">
          <mxGeometry relative="1" as="geometry" />
        </mxCell>
        <mxCell id="LcHalGJhOg3NI_4NTW-C-15" value="Model Evaluation" style="rounded=1;whiteSpace=wrap;html=1;absoluteArcSize=1;arcSize=14;strokeWidth=2;shadow=1;" vertex="1" parent="1">
          <mxGeometry x="690" y="420" width="100" height="100" as="geometry" />
        </mxCell>
        <mxCell id="LcHalGJhOg3NI_4NTW-C-16" value="Deployment and Integration" style="rounded=1;whiteSpace=wrap;html=1;absoluteArcSize=1;arcSize=14;strokeWidth=2;shadow=1;" vertex="1" parent="1">
          <mxGeometry x="830" y="420" width="100" height="100" as="geometry" />
        </mxCell>
        <mxCell id="LcHalGJhOg3NI_4NTW-C-25" value="" style="group;shadow=1;" vertex="1" connectable="0" parent="1">
          <mxGeometry x="335" y="420" width="340" height="100" as="geometry" />
        </mxCell>
        <mxCell id="LcHalGJhOg3NI_4NTW-C-11" value="Explorative Data Analysis" style="rounded=1;whiteSpace=wrap;html=1;absoluteArcSize=1;arcSize=14;strokeWidth=2;shadow=1;" vertex="1" parent="LcHalGJhOg3NI_4NTW-C-25">
          <mxGeometry width="100" height="100" as="geometry" />
        </mxCell>
        <mxCell id="LcHalGJhOg3NI_4NTW-C-12" value="Feature Engineering" style="rounded=1;whiteSpace=wrap;html=1;absoluteArcSize=1;arcSize=14;strokeWidth=2;shadow=1;" vertex="1" parent="LcHalGJhOg3NI_4NTW-C-25">
          <mxGeometry x="120" width="100" height="100" as="geometry" />
        </mxCell>
        <mxCell id="LcHalGJhOg3NI_4NTW-C-20" style="edgeStyle=orthogonalEdgeStyle;rounded=0;orthogonalLoop=1;jettySize=auto;html=1;exitX=1;exitY=0.5;exitDx=0;exitDy=0;shadow=1;" edge="1" parent="LcHalGJhOg3NI_4NTW-C-25" source="LcHalGJhOg3NI_4NTW-C-11" target="LcHalGJhOg3NI_4NTW-C-12">
          <mxGeometry as="geometry" />
        </mxCell>
        <mxCell id="LcHalGJhOg3NI_4NTW-C-14" value="Model Building" style="rounded=1;whiteSpace=wrap;html=1;absoluteArcSize=1;arcSize=14;strokeWidth=2;shadow=1;" vertex="1" parent="LcHalGJhOg3NI_4NTW-C-25">
          <mxGeometry x="240" width="100" height="100" as="geometry" />
        </mxCell>
        <mxCell id="LcHalGJhOg3NI_4NTW-C-21" style="edgeStyle=orthogonalEdgeStyle;rounded=0;orthogonalLoop=1;jettySize=auto;html=1;exitX=1;exitY=0.5;exitDx=0;exitDy=0;entryX=0;entryY=0.5;entryDx=0;entryDy=0;shadow=1;" edge="1" parent="LcHalGJhOg3NI_4NTW-C-25" source="LcHalGJhOg3NI_4NTW-C-12" target="LcHalGJhOg3NI_4NTW-C-14">
          <mxGeometry as="geometry" />
        </mxCell>
        <mxCell id="LcHalGJhOg3NI_4NTW-C-34" value="Explorative" style="text;html=1;strokeColor=none;fillColor=none;align=center;verticalAlign=middle;whiteSpace=wrap;rounded=0;shadow=1;" vertex="1" parent="1">
          <mxGeometry x="335" y="380" width="40" height="20" as="geometry" />
        </mxCell>
        <mxCell id="LcHalGJhOg3NI_4NTW-C-47" style="edgeStyle=orthogonalEdgeStyle;rounded=0;orthogonalLoop=1;jettySize=auto;html=1;exitX=1;exitY=0.5;exitDx=0;exitDy=0;entryX=0;entryY=0.5;entryDx=0;entryDy=0;shadow=1;" edge="1" parent="1" source="LcHalGJhOg3NI_4NTW-C-14" target="LcHalGJhOg3NI_4NTW-C-15">
          <mxGeometry relative="1" as="geometry" />
        </mxCell>
      </root>
    </mxGraphModel>
  </diagram>
</mxfile>
